<svg id="Capa_1" enable-background="new 0 0 512.167 512.167" height="512" viewBox="0 0 512.167 512.167" width="512" xmlns="http://www.w3.org/2000/svg"><g><g><path d="m443.678 245.421-53.906-73.135c-8.091-10.982-1.259-26.605 12.295-28.117l23.127-2.591c-8.978-17.327-20.578-33.149-34.684-47.255-37.695-37.695-88.782-57.763-141.705-56.048-6.717.216-12.469-4.768-13.099-11.467l-.504-5.326-.702-7.479c-.684-7.233 4.846-13.579 12.109-13.848 63.802-2.339 125.458 21.747 170.889 67.179 20.392 20.392 36.423 43.788 47.831 69.746l27.037-3.023c13.555-1.523 23.672 12.205 18.203 24.704l-36.393 83.247c-5.464 12.494-22.407 14.395-30.498 3.413z" fill="#db5c6e"/><path d="m425.193 141.579c-8.978-17.327-20.578-33.149-34.684-47.255-37.695-37.695-88.782-57.763-141.705-56.048-6.717.216-12.469-4.768-13.099-11.467l-.504-5.326c151.098-11.065 189.992 120.096 189.992 120.096z" fill="#d64553"/></g><path d="m37.992 270.161-36.398 83.244c-5.465 12.498 4.65 26.225 18.206 24.707l27.034-3.027c11.411 25.959 27.443 49.362 47.831 69.75 45.435 45.435 107.089 69.515 170.89 67.176 7.262-.266 12.796-6.612 12.114-13.847l-1.208-12.808c-.631-6.692-6.38-11.679-13.098-11.461-52.925 1.716-104.013-18.353-141.709-56.049-14.104-14.104-25.703-29.929-34.679-47.255l23.124-2.589c13.556-1.518 20.385-17.141 12.292-28.122l-53.901-73.133c-8.092-10.979-25.034-9.083-30.498 3.414z" fill="#95d6a4"/><path d="m13.115 377.599c-9.914-2.705-16.037-13.866-11.515-24.194l36.393-83.247c5.464-12.493 22.407-14.394 30.498-3.413l4.726 6.417c-8.397-3.359-18.797.072-22.857 9.362l-36.393 83.247c-1.751 3.995-1.901 8.116-.852 11.828z" fill="#78c2a4"/><g><circle cx="117.505" cy="117.42" fill="#ffd064" r="117.42"/><circle cx="117.505" cy="117.42" fill="#f7f063" r="79.288"/><path d="m117.505 204.438c-47.981 0-87.017-39.036-87.017-87.017s39.036-87.017 87.017-87.017 87.017 39.036 87.017 87.017-39.035 87.017-87.017 87.017zm0-158.577c-39.459 0-71.56 32.102-71.56 71.56s32.101 71.56 71.56 71.56 71.56-32.102 71.56-71.56-32.101-71.56-71.56-71.56z" fill="#ffc250"/><path d="m130.283 109.513c-9.841-2.865-20.751-6.342-27.052-10.412-2.935-1.895-2.912-4.939-2.638-6.585.576-3.457 3.417-7.703 9.659-9.252 2.536-.629 4.902-.929 7.082-1.003.043-.003.087-.003.13-.007 9.546-.288 15.446 3.808 15.843 4.092 3.394 2.527 8.202 1.852 10.767-1.526 2.582-3.399 1.92-8.248-1.478-10.83-.405-.307-7.099-5.271-18.012-6.772v-4.128c0-4.268-3.46-7.729-7.729-7.729s-7.729 3.46-7.729 7.729v4.605c-.854.166-1.716.347-2.595.565-11.131 2.761-19.447 11.284-21.185 21.713-1.483 8.896 2.157 17.368 9.498 22.11 6.427 4.152 15.442 7.707 31.118 12.27 8.135 2.368 12.321 7.162 11.484 13.153-1.277 9.134-11.583 14.116-20.632 14.165-10.437.059-14.573-.325-23.414-5.088-3.76-2.027-8.446-.62-10.47 3.138-2.025 3.758-.62 8.445 3.138 10.47 9.014 4.856 15.223 6.378 23.06 6.796v4.764c0 4.268 3.46 7.729 7.729 7.729s7.729-3.46 7.729-7.729v-5.317c16.48-2.961 26.516-14.96 28.17-26.789 1.923-13.769-6.898-25.598-22.473-30.132z" fill="#e49542"/></g><g><path d="m503.776 294.557c-21.644 0-43.288 0-64.931 0-7.644 0-14.222 35.31-21.866 35.31-13.016 0-27.098-35.31-40.114-35.31-21.644 0-43.288 0-64.931 0-11.077 63.468-11.077 128.375 0 191.843h191.843c11.076-63.468 11.076-128.375-.001-191.843z" fill="#e49542"/><path d="m342.933 486.404h-31c-11.067-63.473-11.067-128.374 0-191.847h31c-11.082 63.473-11.082 128.374 0 191.847z" fill="#e28424"/><path d="m438.844 390.479-30.99-19.537-30.99 19.537v-95.922h61.98z" fill="#ededed"/></g></g></svg>