<svg id="Capa_1" enable-background="new 0 0 512 512" height="512" viewBox="0 0 512 512" width="512" xmlns="http://www.w3.org/2000/svg"><g><path d="m309.899 51.674v295.353l-277.222-23.139h-8.324c-13.45 0-24.353-10.903-24.353-24.353v-247.861c0-13.451 10.903-24.354 24.353-24.354h87.379l43.216 18.679 43.216-18.679h87.38c13.452 0 24.355 10.903 24.355 24.354z" fill="#80b4fb"/><path d="m24.353 27.32v296.568c-13.45 0-24.353-10.903-24.353-24.353v-247.861c0-13.451 10.903-24.354 24.353-24.354z" fill="#61a2f9"/><path d="m185.686 127.574-26.873-13.491c-2.432-1.221-5.298-1.221-7.73 0l-26.873 13.491c-5.728 2.876-12.479-1.289-12.479-7.698v-92.557h86.433v92.557c.001 6.409-6.749 10.574-12.478 7.698z" fill="#ededed"/><path d="m354.846 323.891-55.941 92.224-4.004 25.189h-132.388l-123.867-25.189-24.43-6.623v-67.139c0-10.197 8.265-18.462 18.462-18.462z" fill="#dbdbdb"/><path d="m343.164 343.153 11.682-19.265h-322.169c-9.652 0-17.558 7.404-18.379 16.843-.052.509-.082 1.046-.082 1.622v67.147l24.426 6.614 123.869 25.198h30.061l-123.869-25.198-24.426-6.614v-53.954c0-6.845 5.549-12.393 12.393-12.393z" fill="#cbcac8"/><path d="m487.078 409.488s24.922-59.237 24.922-112.348c0 0-37.841-85.97-58.205-156.681-3.991-13.859-15.784-24.049-30.084-25.924-16.831-2.208-23.327-31.426-48.983-31.184-11.304.106-22.881.717-34.215 2.066-17.444 2.076-30.614 16.805-30.614 34.372v289.7h177.179z" fill="#db5c6e"/><path d="m348.013 84.635c-8.329 6.526-13.599 16.648-13.599 27.907v296.946h-24.515v-289.7c0-17.571 13.17-32.298 30.612-34.38 2.489-.29 4.99-.558 7.502-.773z" fill="#d64553"/><path d="m298.905 416.115-4.004 33.585h-132.388l-123.867-33.585h194.568z" fill="#ededed"/><path d="m298.905 432.908-4.004 16.792h-132.388l-123.867-16.792z" fill="#dbdbdb"/><path d="m487.208 449.697h-111.117v-40.209h111.116c7.846 0 14.207 6.361 14.207 14.207v11.796c0 7.846-6.36 14.206-14.206 14.206z" fill="#ededed"/><path d="m501.419 423.7v11.797c0 7.846-6.365 14.201-14.212 14.201h-111.114v-16.358h111.115c7.074 0 12.934-5.163 14.029-11.925.118.74.182 1.513.182 2.285z" fill="#dbdbdb"/><path d="m14.217 449.697h89.649v-40.209h-89.649c-7.846 0-14.207 6.361-14.207 14.207v11.796c0 7.846 6.361 14.206 14.207 14.206z" fill="#ededed"/><path d="m.005 423.7v11.797c0 7.846 6.365 14.201 14.212 14.201h89.647v-16.358h-89.647c-7.074 0-12.934-5.163-14.029-11.925-.118.74-.183 1.513-.183 2.285z" fill="#dbdbdb"/><path d="m512 297.145s-38.158 8.602-83.888 7.067c.093-1.102.165-2.215.227-3.327 1.535-23.931-15.546-44.957-39.034-48.573-.67-.103-1.349-.196-2.04-.268-6.428-.711-12.558-1.082-18.008-1.236-4.152-45.338-7.211-115.051 5.46-167.456 8.005-.072 15.875.103 23.416.443 2.627.123 5.213.258 7.747.412 13.578.855 25.837 2.184 35.593 3.472 14.288 1.865 26.084 12.064 30.071 25.92 20.378 70.71 40.456 183.546 40.456 183.546z" fill="#d3effb"/><path d="m374.727 83.329c0 .011 0 .011-.011.021" fill="#d3effb"/><path d="m389.305 252.311c-.67-.103-1.349-.196-2.04-.268-6.428-.711-12.558-1.082-18.008-1.236-4.152-45.338-7.211-115.051 5.46-167.456 8.005-.072 15.875.103 23.416.443-5.624 38.488-9.837 107.685-8.828 168.517z" fill="#b1e4f9"/><g><circle cx="354.846" cy="415.855" fill="#407093" r="68.827"/><path d="m365.062 483.917c-3.338.504-6.752.762-10.218.762-38.008 0-68.824-30.816-68.824-68.824 0-38.018 30.816-68.835 68.824-68.835 3.467 0 6.88.258 10.218.762-33.167 4.927-58.617 33.521-58.617 68.073 0 34.541 25.45 63.135 58.617 68.062z" fill="#365e7d"/><circle cx="354.846" cy="415.855" fill="#ededed" r="33.843"/><path d="m388.689 415.855c0 18.687-15.156 33.843-33.843 33.843-2.823 0-5.549-.344-8.168-.998 14.748-3.66 25.664-16.981 25.664-32.845 0-15.875-10.916-29.195-25.664-32.845 2.619-.655 5.345-.998 8.168-.998 18.687 0 33.843 15.145 33.843 33.843z" fill="#dbdbdb"/><path d="m354.846 457.424c-22.922 0-41.569-18.648-41.569-41.569 0-22.922 18.648-41.569 41.569-41.569 22.922 0 41.569 18.648 41.569 41.569s-18.647 41.569-41.569 41.569zm0-67.686c-14.4 0-26.117 11.716-26.117 26.117 0 14.4 11.716 26.116 26.117 26.116 14.4 0 26.117-11.716 26.117-26.116 0-14.401-11.717-26.117-26.117-26.117z" fill="#365e7d"/></g><g><circle cx="102.573" cy="415.855" fill="#407093" r="68.827"/><path d="m112.789 483.917c-3.338.504-6.752.762-10.218.762-38.008 0-68.824-30.816-68.824-68.824 0-38.018 30.816-68.835 68.824-68.835 3.467 0 6.88.258 10.218.762-33.167 4.927-58.617 33.521-58.617 68.073 0 34.541 25.449 63.135 58.617 68.062z" fill="#365e7d"/><circle cx="102.573" cy="415.855" fill="#ededed" r="33.843"/><path d="m136.416 415.855c0 18.687-15.156 33.843-33.843 33.843-2.823 0-5.549-.344-8.168-.998 14.748-3.66 25.664-16.981 25.664-32.845 0-15.875-10.916-29.195-25.664-32.845 2.619-.655 5.345-.998 8.168-.998 18.687 0 33.843 15.145 33.843 33.843z" fill="#dbdbdb"/><path d="m102.572 457.424c-22.922 0-41.569-18.648-41.569-41.569 0-22.922 18.648-41.569 41.569-41.569s41.569 18.648 41.569 41.569c.001 22.921-18.647 41.569-41.569 41.569zm0-67.686c-14.4 0-26.117 11.716-26.117 26.117 0 14.4 11.716 26.116 26.117 26.116s26.117-11.716 26.117-26.116c0-14.401-11.716-26.117-26.117-26.117z" fill="#365e7d"/></g><path d="m388.689 297.716h-29.28c-4.268 0-7.726-3.459-7.726-7.726s3.459-7.726 7.726-7.726h29.28c4.268 0 7.726 3.459 7.726 7.726s-3.458 7.726-7.726 7.726z" fill="#ededed"/><path d="m454.631 336.1c-8.729 0-15.806 7.076-15.806 15.806v6.619c0 8.729 7.076 15.806 15.806 15.806 8.729 0 15.806-7.076 15.806-15.806v-6.619c-.001-8.73-7.077-15.806-15.806-15.806z" fill="#ffd064"/><path d="m459.099 373.689c-1.422.412-2.915.639-4.471.639-8.726 0-15.803-7.077-15.803-15.803v-6.614c0-8.736 7.077-15.813 15.803-15.813 1.556 0 3.049.227 4.471.639-6.552 1.926-11.342 7.994-11.342 15.175v6.614c0 7.179 4.79 13.236 11.342 15.163z" fill="#ffc250"/><g><path d="m124.212 291.797c-26.088 2.188-52.176 2.188-78.263 0-7.14-.599-12.787-6.246-13.386-13.386-2.188-26.088-2.188-52.176 0-78.263.599-7.14 6.246-12.787 13.386-13.386 26.088-2.188 52.176-2.188 78.263 0 7.14.599 12.787 6.246 13.386 13.386 2.188 26.088 2.188 52.176 0 78.263-.598 7.14-6.246 12.788-13.386 13.386z" fill="#ededed"/><g fill="#365e7d"><path d="m112.442 231.757h-54.723c-4.268 0-7.726-3.459-7.726-7.726s3.459-7.726 7.726-7.726h54.722c4.268 0 7.726 3.459 7.726 7.726s-3.458 7.726-7.725 7.726z"/><path d="m112.442 262.256h-54.723c-4.268 0-7.726-3.459-7.726-7.726s3.459-7.726 7.726-7.726h54.722c4.268 0 7.726 3.459 7.726 7.726s-3.458 7.726-7.725 7.726z"/></g></g></g></svg>